# xmcd CD database file
#
# Track frame offsets:
#	150
#	21225
#	36975
#	57470
#	74045
#	98064
#	118389
#	134397
#	149247
#	181723
#	205095
#	234645
#
# Disc length: 3360 seconds
#
# Revision: 0
# Processed by: cddbd v1.5.2PL0 Copyright (c) Steve Scherf et al.
# Submitted via: CDex 1.70beta2
#
DISCID=bf0d1e0c
DTITLE=Eddie Higgins - Relaxin' At The Lounge "With Eddie Higgins" [CD1]
DYEAR=2007
DGENRE=Jazz
TTITLE0=Exactly Like You
TTITLE1=S'Wonderful
TTITLE2=Autumn Leaves
TTITLE3=Let It Snow
TTITLE4=You're My Everything
TTITLE5=Secret Love
TTITLE6=Golden Earrings
TTITLE7=Minor Swing
TTITLE8=Slow Boat To China
TTITLE9=I Should Care
TTITLE10=I'll Close My Eyes
TTITLE11=Lover Come Back To Me
EXTD=YEAR: 2007
EXTT0=
EXTT1=
EXTT2=
EXTT3=
EXTT4=
EXTT5=
EXTT6=
EXTT7=
EXTT8=
EXTT9=
EXTT10=
EXTT11=
PLAYORDER=
